<?xml version="1.0" encoding="utf-8"?>
<!-- Generator: Adobe Illustrator 16.0.0, SVG Export Plug-In . SVG Version: 6.00 Build 0)  -->
<!DOCTYPE svg PUBLIC "-//W3C//DTD SVG 1.1//EN" "http://www.w3.org/Graphics/SVG/1.1/DTD/svg11.dtd">
<svg version="1.1" id="Layer_1" xmlns="http://www.w3.org/2000/svg" xmlns:xlink="http://www.w3.org/1999/xlink" x="0px" y="0px"
	 width="221.9px" height="247.9px" viewBox="0 0 221.9 247.9" enable-background="new 0 0 221.9 247.9" xml:space="preserve">
<g>
	<defs>
		<path id="SVGID_1_" d="M37,81.2c0-40.1,32.6-72.7,72.7-72.7c40.1,0,72.7,32.6,72.7,72.7c0,40.1-32.6,72.7-72.7,72.7
			C69.6,153.9,37,121.3,37,81.2 M28.5,81.2c0,44.8,36.4,81.2,81.2,81.2s81.2-36.4,81.2-81.2c0-44.8-36.4-81.2-81.2-81.2
			S28.5,36.4,28.5,81.2"/>
	</defs>
	<clipPath id="SVGID_2_">
		<use xlink:href="#SVGID_1_"  overflow="visible"/>
	</clipPath>
	
		<linearGradient id="SVGID_3_" gradientUnits="userSpaceOnUse" x1="-90.9678" y1="249.0713" x2="-89.9678" y2="249.0713" gradientTransform="matrix(124.129 -124.129 -124.129 -124.129 42255.7109 19769.4102)">
		<stop  offset="0" style="stop-color:#BC9F40"/>
		<stop  offset="1" style="stop-color:#20667F"/>
	</linearGradient>
	<polygon clip-path="url(#SVGID_2_)" fill="url(#SVGID_3_)" points="-52.7,81.2 109.7,-81.2 272.1,81.2 109.7,243.6 	"/>
</g>
<text transform="matrix(1 0 0 1 0 209.6865)" fill="#20667F" font-family="'FredokaOne-Regular'" font-size="28.9778">J</text>
<text transform="matrix(1 0 0 1 17.6475 209.6865)" fill="#20667F" font-family="'FredokaOne-Regular'" font-size="28.9778">O</text>
<text transform="matrix(1 0 0 1 41.8438 209.6865)" fill="#20667F" font-family="'FredokaOne-Regular'" font-size="28.9778">U</text>
<text transform="matrix(1 0 0 1 65.7798 209.6865)" fill="#20667F" font-family="'FredokaOne-Regular'" font-size="28.9778">R</text>
<text transform="matrix(1 0 0 1 87.542 209.6865)" fill="#20667F" font-family="'FredokaOne-Regular'" font-size="28.9778">N</text>
<text transform="matrix(1 0 0 1 110.1445 209.6865)" fill="#20667F" font-family="'FredokaOne-Regular'" font-size="28.9778">A</text>
<text transform="matrix(1 0 0 1 135.21 209.6865)" fill="#20667F" font-family="'FredokaOne-Regular'" font-size="28.9778">L</text>
<text transform="matrix(1 0 0 1 154.5391 209.6865)" fill="#20667F" font-family="'FredokaOne-Regular'" font-size="28.9778">I</text>
<text transform="matrix(1 0 0 1 164.8838 209.6865)" fill="#20667F" font-family="'FredokaOne-Regular'" font-size="28.9778">S</text>
<text transform="matrix(1 0 0 1 182.6475 209.6865)"><tspan x="0" y="0" fill="#20667F" font-family="'FredokaOne-Regular'" font-size="28.9778" letter-spacing="1">T</tspan><tspan x="22.3" y="0" fill="#20667F" font-family="'FredokaOne-Regular'" font-size="28.9778">S</tspan></text>
<text transform="matrix(1 0 0 1 31.3828 241.0693)" fill="#20667F" font-family="'FredokaOne-Regular'" font-size="28.9778">O</text>
<text transform="matrix(1 0 0 1 55.5796 241.0693)"><tspan x="0" y="0" fill="#20667F" font-family="'FredokaOne-Regular'" font-size="28.9778" letter-spacing="1">F</tspan><tspan x="20.2" y="0" fill="#20667F" font-family="'FredokaOne-Regular'" font-size="28.9778"> </tspan></text>
<text transform="matrix(1 0 0 1 84.8472 241.0693)" fill="#20667F" font-family="'FredokaOne-Regular'" font-size="28.9778">C</text>
<text transform="matrix(1 0 0 1 106.2617 241.0693)" fill="#20667F" font-family="'FredokaOne-Regular'" font-size="28.9778">O</text>
<text transform="matrix(1 0 0 1 130.458 241.0693)" fill="#20667F" font-family="'FredokaOne-Regular'" font-size="28.9778">L</text>
<text transform="matrix(1 0 0 1 148.0479 241.0693)"><tspan x="0" y="0" fill="#20667F" font-family="'FredokaOne-Regular'" font-size="28.9778" letter-spacing="1">O</tspan><tspan x="24.2" y="0" fill="#20667F" font-family="'FredokaOne-Regular'" font-size="28.9778">R</tspan></text>
<g>
	<path fill="#20667F" d="M98.6,70.8c3-2.8,6.4-4.1,10.2-4.1c3.8,0,7.2,1.4,10.1,4.1c2.9,2.7,4.4,6.2,4.4,10.5c0,2.9-0.8,5.6-2.3,7.8
		c-1.5,2.3-3.4,4-5.5,5c-2.2,1.1-4.4,1.6-6.8,1.6c-2.3,0-4.6-0.6-6.8-1.7c-2.2-1.1-4-2.8-5.6-5.1s-2.3-4.8-2.3-7.6
		C94.2,77.1,95.7,73.6,98.6,70.8 M105.3,85.1c1.1,0.9,2.3,1.3,3.5,1.3s2.3-0.4,3.5-1.3c1.2-0.9,1.8-2.2,1.8-3.9c0-1.7-0.5-3-1.6-3.9
		c-1.1-0.9-2.3-1.3-3.6-1.3s-2.5,0.4-3.6,1.3c-1.1,0.9-1.6,2.2-1.6,3.9C103.6,82.9,104.1,84.2,105.3,85.1"/>
	<path fill="#20667F" d="M138.8,81c0,1.5,0.5,2.7,1.5,3.5c1,0.8,2,1.2,3.2,1.2c1.1,0,2.2-0.3,3.1-1c1-0.7,1.8-1,2.4-1
		c1.1,0,2.4,0.9,3.9,2.8c0.8,1,1.2,1.9,1.2,2.8c0,1.3-1,2.6-2.9,3.8c-2,1.4-4.5,2.1-7.4,2.1c-3.3,0-6.5-1.2-9.5-3.6
		c-1.5-1.1-2.6-2.6-3.6-4.5c-0.9-1.9-1.4-4-1.4-6.3c0-2.3,0.5-4.4,1.4-6.2c0.9-1.9,2.1-3.4,3.6-4.5c2.9-2.3,6.1-3.5,9.4-3.5
		c1.3,0,2.7,0.2,3.9,0.6c1.3,0.4,2.2,0.7,2.8,1.1l0.8,0.5c0.6,0.4,1.1,0.8,1.5,1c0.9,0.7,1.4,1.5,1.4,2.4c0,0.9-0.4,1.9-1.1,3.1
		c-1.3,1.9-2.5,2.9-3.7,2.9c-0.7,0-1.6-0.4-2.9-1.2c-0.6-0.6-1.5-0.9-2.7-0.9c-1.2,0-2.3,0.4-3.3,1.3
		C139.3,78.3,138.8,79.5,138.8,81"/>
	<path fill="#20667F" d="M79.3,67c0.7-0.2,1.5-0.3,2.6-0.3c1.1,0,2,0.1,2.6,0.3c0.6,0.2,1.1,0.6,1.4,1.1c0.3,0.5,0.4,1,0.5,1.4
		c0.1,0.4,0.1,1,0.1,1.8v21.9c0,4.1-1.4,7.5-4.3,9.9c-2.9,2.5-6,3.7-9.5,3.7c-0.8,0-1.4,0-1.8-0.1c-0.4-0.1-0.8-0.2-1.3-0.5
		c-0.9-0.5-1.4-1.8-1.4-3.9c0-2.1,0.4-3.4,1.1-3.9c0.8-0.5,1.8-0.8,3.1-0.8c1.3,0,2.4-0.4,3.4-1.1c1-0.7,1.5-2,1.5-3.8V70.9
		c0-1.2,0.2-2.2,0.5-2.7C78.1,67.6,78.6,67.2,79.3,67"/>
	<path fill="#20667F" d="M78,61.7c1.1,0.9,2.3,1.3,3.5,1.3s2.3-0.4,3.5-1.3c1.2-0.9,1.8-2.2,1.8-3.9c0-1.7-0.5-3-1.6-3.9
		c-1.1-0.9-2.3-1.3-3.6-1.3c-1.3,0-2.5,0.4-3.6,1.3c-1.1,0.9-1.6,2.2-1.6,3.9C76.3,59.5,76.9,60.8,78,61.7"/>
</g>
</svg>
