<?xml version="1.0" encoding="utf-8"?>
<!-- Generator: Adobe Illustrator 16.0.0, SVG Export Plug-In . SVG Version: 6.00 Build 0)  -->
<!DOCTYPE svg PUBLIC "-//W3C//DTD SVG 1.1//EN" "http://www.w3.org/Graphics/SVG/1.1/DTD/svg11.dtd">
<svg version="1.1" id="Layer_1" xmlns="http://www.w3.org/2000/svg" xmlns:xlink="http://www.w3.org/1999/xlink" x="0px" y="0px"
	 width="85.9px" height="54.3px" viewBox="0 0 85.9 54.3" enable-background="new 0 0 85.9 54.3" xml:space="preserve">
<g>
	<path fill="#FFFFFF" d="M30.5,18.2c3-2.8,6.4-4.1,10.2-4.1c3.8,0,7.2,1.4,10.1,4.1c2.9,2.7,4.4,6.2,4.4,10.5c0,2.9-0.8,5.6-2.3,7.8
		c-1.5,2.3-3.4,4-5.5,5c-2.2,1.1-4.4,1.6-6.8,1.6c-2.3,0-4.6-0.6-6.8-1.7c-2.2-1.1-4-2.8-5.6-5.1S26,31.6,26,28.8
		C26,24.5,27.5,21,30.5,18.2 M37.1,32.6c1.1,0.9,2.3,1.3,3.5,1.3s2.3-0.4,3.5-1.3c1.2-0.9,1.8-2.2,1.8-3.9c0-1.7-0.5-3-1.6-3.9
		c-1.1-0.9-2.3-1.3-3.6-1.3s-2.5,0.4-3.6,1.3c-1.1,0.9-1.6,2.2-1.6,3.9C35.4,30.4,36,31.7,37.1,32.6"/>
	<path fill="#FFFFFF" d="M70.6,28.4c0,1.5,0.5,2.7,1.5,3.5c1,0.8,2,1.2,3.2,1.2c1.1,0,2.2-0.3,3.1-1c1-0.7,1.8-1,2.4-1
		c1.1,0,2.4,0.9,3.9,2.8c0.8,1,1.2,1.9,1.2,2.8c0,1.3-1,2.6-2.9,3.8c-2,1.4-4.5,2.1-7.4,2.1c-3.3,0-6.5-1.2-9.5-3.6
		c-1.5-1.1-2.6-2.6-3.6-4.5c-0.9-1.9-1.4-4-1.4-6.3c0-2.3,0.5-4.4,1.4-6.2c0.9-1.9,2.1-3.4,3.6-4.5c2.9-2.3,6.1-3.5,9.4-3.5
		c1.3,0,2.7,0.2,3.9,0.6c1.3,0.4,2.2,0.7,2.8,1.1l0.8,0.5c0.6,0.4,1.1,0.8,1.5,1c0.9,0.7,1.4,1.5,1.4,2.4c0,0.9-0.4,1.9-1.1,3.1
		c-1.3,1.9-2.5,2.9-3.7,2.9c-0.7,0-1.6-0.4-2.9-1.2c-0.6-0.6-1.5-0.9-2.7-0.9c-1.2,0-2.3,0.4-3.3,1.3C71.1,25.7,70.6,26.9,70.6,28.4
		"/>
	<path fill="#FFFFFF" d="M11.1,14.4c0.7-0.2,1.5-0.3,2.6-0.3c1.1,0,2,0.1,2.6,0.3c0.6,0.2,1.1,0.6,1.4,1.1c0.3,0.5,0.4,1,0.5,1.4
		c0.1,0.4,0.1,1,0.1,1.8v21.9c0,4.1-1.4,7.5-4.3,9.9c-2.9,2.5-6,3.7-9.5,3.7c-0.8,0-1.4,0-1.8-0.1c-0.4-0.1-0.8-0.2-1.3-0.5
		C0.5,53.2,0,51.9,0,49.9c0-2.1,0.4-3.4,1.1-3.9c0.8-0.5,1.8-0.8,3.1-0.8c1.3,0,2.4-0.4,3.4-1.1c1-0.7,1.5-2,1.5-3.8V18.4
		c0-1.2,0.2-2.2,0.5-2.7C10,15,10.5,14.6,11.1,14.4"/>
	<path fill="#FFFFFF" d="M9.9,9.1c1.1,0.9,2.3,1.3,3.5,1.3s2.3-0.4,3.5-1.3c1.2-0.9,1.8-2.2,1.8-3.9c0-1.7-0.5-3-1.6-3.9
		C15.8,0.4,14.7,0,13.4,0c-1.3,0-2.5,0.4-3.6,1.3C8.7,2.2,8.2,3.5,8.2,5.2C8.2,7,8.7,8.2,9.9,9.1"/>
</g>
</svg>
